<svg width="96" height="95" viewBox="0 0 96 95" fill="none" xmlns="http://www.w3.org/2000/svg">
<rect width="96" height="95" rx="12" fill="url(#paint0_linear_3001_273)"/>
<path d="M43.8333 78.3137V49.8863L18.8333 35.465V63.8925L43.8333 78.3137ZM52.1667 78.3137L77.1667 63.8925V35.465L52.1667 49.8863V78.3137ZM48 42.7275L72.6875 28.5138L48 14.3L23.3125 28.5138L48 42.7275ZM14.6667 71.155C13.3472 70.3942 12.3229 69.3913 11.5937 68.1463C10.8646 66.9013 10.5 65.5179 10.5 63.9963V31.0038C10.5 29.4821 10.8646 28.0988 11.5937 26.8538C12.3229 25.6088 13.3472 24.6058 14.6667 23.845L43.8333 7.14125C45.1528 6.38042 46.5417 6 48 6C49.4583 6 50.8472 6.38042 52.1667 7.14125L81.3333 23.845C82.6528 24.6058 83.6771 25.6088 84.4062 26.8538C85.1354 28.0988 85.5 29.4821 85.5 31.0038V63.9963C85.5 65.5179 85.1354 66.9013 84.4062 68.1463C83.6771 69.3913 82.6528 70.3942 81.3333 71.155L52.1667 87.8588C50.8472 88.6196 49.4583 89 48 89C46.5417 89 45.1528 88.6196 43.8333 87.8588L14.6667 71.155Z" fill="white"/>
<defs>
<linearGradient id="paint0_linear_3001_273" x1="0" y1="0" x2="94.9948" y2="95.9947" gradientUnits="userSpaceOnUse">
<stop stop-color="#137FEC"/>
<stop offset="1" stop-color="#2563EB"/>
</linearGradient>
</defs>
</svg>
